<?xml version="1.0" encoding="UTF-8" standalone="no"?>
<!-- Created with Inkscape (http://www.inkscape.org/) -->

<svg
   xmlns:dc="http://purl.org/dc/elements/1.1/"
   xmlns:cc="http://creativecommons.org/ns#"
   xmlns:rdf="http://www.w3.org/1999/02/22-rdf-syntax-ns#"
   xmlns:svg="http://www.w3.org/2000/svg"
   xmlns="http://www.w3.org/2000/svg"
   xmlns:sodipodi="http://sodipodi.sourceforge.net/DTD/sodipodi-0.dtd"
   xmlns:inkscape="http://www.inkscape.org/namespaces/inkscape"
   version="1.1"
   id="svg2"
   xml:space="preserve"
   width="149.42827"
   height="149.42946"
   viewBox="0 0 149.42827 149.42946"
   sodipodi:docname="IconoReloj.svg"
   inkscape:version="0.92.3 (2405546, 2018-03-11)"><metadata
     id="metadata8"><rdf:RDF><cc:Work
         rdf:about=""><dc:format>image/svg+xml</dc:format><dc:type
           rdf:resource="http://purl.org/dc/dcmitype/StillImage" /><dc:title></dc:title></cc:Work></rdf:RDF></metadata><defs
     id="defs6"><radialGradient
       fx="0"
       fy="0"
       cx="0"
       cy="0"
       r="1"
       gradientUnits="userSpaceOnUse"
       gradientTransform="matrix(188.108,0,0,-188.108,606.50849,42.710862)"
       spreadMethod="pad"
       id="radialGradient20"><stop
         style="stop-opacity:1;stop-color:#fdfdfd"
         offset="0"
         id="stop14" /><stop
         style="stop-opacity:1;stop-color:#fdfdfd"
         offset="0.322581"
         id="stop16" /><stop
         style="stop-opacity:1;stop-color:#ededed"
         offset="1"
         id="stop18" /></radialGradient></defs><sodipodi:namedview
     pagecolor="#ffffff"
     bordercolor="#666666"
     borderopacity="1"
     objecttolerance="10"
     gridtolerance="10"
     guidetolerance="10"
     inkscape:pageopacity="0"
     inkscape:pageshadow="2"
     inkscape:window-width="2560"
     inkscape:window-height="1387"
     id="namedview4"
     showgrid="false"
     fit-margin-top="0"
     fit-margin-left="0"
     fit-margin-right="0"
     fit-margin-bottom="0"
     inkscape:zoom="0.61458333"
     inkscape:cx="74.713603"
     inkscape:cy="58.93747"
     inkscape:window-x="0"
     inkscape:window-y="0"
     inkscape:window-maximized="1"
     inkscape:current-layer="g10" /><g
     id="g10"
     inkscape:groupmode="layer"
     inkscape:label="ink_ext_XXXXXX"
     transform="matrix(1.3333333,0,0,-1.3333333,-117.2864,282.49199)"><path
       inkscape:connector-curvature="0"
       id="path24"
       style="fill:#ececec;fill-opacity:1;fill-rule:nonzero;stroke:none;stroke-width:0.1"
       d="m 148.229,108.454 v 3.766 c 0,2.338 -1.891,4.23 -4.229,4.23 -2.338,0 -4.229,-1.892 -4.229,-4.23 v -3.766 c -22.908,2.028 -41.194,20.356 -43.1597,43.282 h 3.6447 c 2.337,0 4.228,1.891 4.228,4.229 0,2.338 -1.891,4.229 -4.228,4.229 h -3.6251 c 2.0839,22.803 20.3201,40.997 43.1401,43.019 v -3.503 c 0,-2.338 1.891,-4.229 4.229,-4.229 2.338,0 4.229,1.891 4.229,4.229 v 3.503 c 22.821,-2.022 41.057,-20.216 43.14,-43.019 h -3.624 c -2.338,0 -4.229,-1.891 -4.229,-4.229 0,-2.338 1.891,-4.229 4.229,-4.229 h 3.645 C 189.424,128.81 171.138,110.482 148.229,108.454 Z M 144,211.869 c -30.95,0 -56.0352,-25.085 -56.0352,-56.036 0,-30.95 25.0852,-56.0361 56.0352,-56.0361 30.95,0 56.036,25.0861 56.036,56.0361 0,30.951 -25.086,56.036 -56.036,56.036" /><path
       inkscape:connector-curvature="0"
       id="path26"
       style="fill:#ececec;fill-opacity:1;fill-rule:nonzero;stroke:none;stroke-width:0.1"
       d="M 169.193,183.132 144.143,156.883 144,156.89 c -0.313,0 -0.619,-0.032 -0.916,-0.09 l -20.965,15.842 c -1.388,1.041 -3.378,0.776 -4.435,-0.628 -1.057,-1.388 -0.785,-3.386 0.62,-4.443 l 20.959,-15.836 c 0.202,-2.44 2.245,-4.361 4.737,-4.361 2.627,0 4.758,2.132 4.758,4.758 0,0.126 -0.009,0.249 -0.019,0.372 l 25.046,26.25 c 1.207,1.273 1.165,3.272 -0.106,4.486 -1.264,1.214 -3.272,1.156 -4.486,-0.108" /></g></svg>