<?xml version="1.0" encoding="UTF-8" standalone="no"?>
<!-- Created with Inkscape (http://www.inkscape.org/) -->

<svg
   xmlns:dc="http://purl.org/dc/elements/1.1/"
   xmlns:cc="http://creativecommons.org/ns#"
   xmlns:rdf="http://www.w3.org/1999/02/22-rdf-syntax-ns#"
   xmlns:svg="http://www.w3.org/2000/svg"
   xmlns="http://www.w3.org/2000/svg"
   xmlns:sodipodi="http://sodipodi.sourceforge.net/DTD/sodipodi-0.dtd"
   xmlns:inkscape="http://www.inkscape.org/namespaces/inkscape"
   version="1.1"
   id="svg2"
   xml:space="preserve"
   width="69.057487"
   height="69.057487"
   viewBox="0 0 69.057488 69.057488"
   sodipodi:docname="IconoBuscar.svg"
   inkscape:version="0.92.3 (2405546, 2018-03-11)"><metadata
     id="metadata8"><rdf:RDF><cc:Work
         rdf:about=""><dc:format>image/svg+xml</dc:format><dc:type
           rdf:resource="http://purl.org/dc/dcmitype/StillImage" /><dc:title></dc:title></cc:Work></rdf:RDF></metadata><defs
     id="defs6"><clipPath
       clipPathUnits="userSpaceOnUse"
       id="clipPath40"><path
         d="m 2589.93,1037.82 c -790.51,0 -1431.34,28.82 -1431.34,64.36 0,35.54 640.83,64.36 1431.34,64.36 790.51,0 1431.33,-28.82 1431.33,-64.36 0,-35.54 -640.82,-64.36 -1431.33,-64.36"
         id="path38"
         inkscape:connector-curvature="0" /></clipPath></defs><sodipodi:namedview
     pagecolor="#ffffff"
     bordercolor="#666666"
     borderopacity="1"
     objecttolerance="10"
     gridtolerance="10"
     guidetolerance="10"
     inkscape:pageopacity="0"
     inkscape:pageshadow="2"
     inkscape:window-width="2560"
     inkscape:window-height="1387"
     id="namedview4"
     showgrid="false"
     fit-margin-top="0"
     fit-margin-left="0"
     fit-margin-right="0"
     fit-margin-bottom="0"
     inkscape:zoom="0.35399999"
     inkscape:cx="340.9812"
     inkscape:cy="-1.9042942"
     inkscape:window-x="0"
     inkscape:window-y="0"
     inkscape:window-maximized="1"
     inkscape:current-layer="g10" /><g
     id="g10"
     inkscape:groupmode="layer"
     inkscape:label="ink_ext_XXXXXX"
     transform="matrix(1.3333333,0,0,-1.3333333,670.07725,404.29511)"><path
       inkscape:connector-curvature="0"
       id="path16"
       style="fill:#ffffff;fill-opacity:1;fill-rule:nonzero;stroke:none;stroke-width:0.14237288"
       d="M 587.47037,454.73471 H 135.16582 c -23.09501,0 -41.817048,-18.72204 -41.817048,-41.81776 0,-23.09431 18.722038,-41.81634 41.817048,-41.81634 h 452.30455 c 23.09573,0 41.81776,18.72203 41.81776,41.81634 0,23.09572 -18.72203,41.81776 -41.81776,41.81776" /><path
       inkscape:connector-curvature="0"
       id="path18"
       style="fill:#ffffff;fill-opacity:1;fill-rule:nonzero;stroke:none;stroke-width:0.14237288"
       d="m 587.47037,454.73471 v 7.11864 H 135.16582 c -13.49097,0.004 -25.76949,-5.48847 -34.60273,-14.33268 -8.844345,-8.83281 -14.336237,-21.11247 -14.332962,-34.60372 -0.0033,-13.48984 5.488617,-25.7695 14.332962,-34.60231 8.83324,-8.8442 21.11176,-14.33695 34.60273,-14.33268 h 452.30455 c 13.49125,-0.004 25.76949,5.48848 34.60373,14.33268 8.8442,8.83281 14.33552,21.11247 14.33267,34.60231 0.003,13.49125 -5.48847,25.77091 -14.33267,34.60372 -8.83424,8.84421 -21.11248,14.33695 -34.60373,14.33268 v -7.11864 -7.11865 c 9.60447,-0.003 18.23369,-3.87254 24.53654,-10.16257 6.29003,-6.30143 10.1583,-14.93207 10.16258,-24.53654 -0.004,-9.60306 -3.87255,-18.2337 -10.16258,-24.53512 -6.30285,-6.29004 -14.93207,-10.15973 -24.53654,-10.16258 H 135.16582 c -9.60404,0.003 -18.23369,3.87254 -24.5354,10.16258 -6.2906,6.30142 -10.15959,14.93206 -10.163,24.53512 0.003,9.60447 3.8724,18.23511 10.163,24.53654 6.30171,6.29003 14.93136,10.15973 24.5354,10.16257 h 452.30455 v 7.11865" /><path
       inkscape:connector-curvature="0"
       id="path20"
       style="fill:#505bb2;fill-opacity:1;fill-rule:nonzero;stroke:none;stroke-width:0.14237288"
       d="M 587.47037,454.73471 H 476.28142 v -83.6341 h 111.18895 c 23.09573,0 41.81776,18.72203 41.81776,41.81776 0,23.0943 -18.72203,41.81634 -41.81776,41.81634" /><path
       inkscape:connector-curvature="0"
       id="path22"
       style="fill:#808080;fill-opacity:1;fill-rule:nonzero;stroke:none;stroke-width:0.14237288"
       d="m -479.85945,296.73768 c -8.95383,0 -16.21342,-7.26244 -16.21342,-16.21485 0,-8.95525 7.25959,-16.212 16.21342,-16.212 8.95526,0 16.21343,7.25675 16.21343,16.212 0,8.95241 -7.25817,16.21485 -16.21343,16.21485 z m 27.67017,-43.88502 c -1.9021,-1.89925 -4.97878,-1.89925 -6.87803,0 l -8.58366,8.58509 c -3.53227,-2.26088 -7.70522,-3.612 -12.20848,-3.612 -12.53593,0 -22.6985,10.16258 -22.6985,22.69708 0,12.53594 10.16257,22.69851 22.6985,22.69851 12.53594,0 22.69851,-10.16257 22.69851,-22.69851 0,-4.50325 -1.35112,-8.6762 -3.612,-12.20847 l 8.58366,-8.58366 c 1.89926,-1.90068 1.89926,-4.97736 0,-6.87804" /><g
       transform="scale(1.4237288)"
       id="g24"><text
   id="text28"
   style="font-variant:normal;font-weight:500;font-size:20.95739937px;font-family:Montserrat;-inkscape-font-specification:Montserrat-Medium;writing-mode:lr-tb;fill:#413a58;fill-opacity:1;fill-rule:nonzero;stroke:none"
   transform="matrix(1,0,0,-1,99.3422,282.969)"><tspan
     id="tspan26"
     sodipodi:role="line"
     y="0"
     x="0 14.27199 22.676283 31.352646 45.645592 51.408291 57.360455 64.108994 82.781403 101.4543 119.60319">http://www.</tspan></text>

</g><path
       inkscape:connector-curvature="0"
       id="path30"
       style="fill:#413a58;fill-opacity:1;fill-rule:nonzero;stroke:none;stroke-width:0.14237288"
       d="m 582.54569,303.69844 -82.35275,83.52447 -3.75294,-117.23552 29.32169,23.10427 16.30881,-41.65688 19.56916,7.66108 -16.30882,41.65831 37.21485,2.94427" /><path
       inkscape:connector-curvature="0"
       id="path32"
       style="fill:#ffffff;fill-opacity:1;fill-rule:nonzero;stroke:none;stroke-width:0.14237288"
       d="m 582.54569,303.69844 2.53424,2.49864 -88.17865,89.43437 -4.26264,-133.17132 31.55837,24.86685 15.85749,-40.50508 26.19804,10.25796 -15.85749,40.50509 40.05233,3.16779 -5.36745,5.44434 -2.53424,-2.49864 -0.28048,3.54793 -41.99715,-3.32156 16.76014,-42.81152 -12.94027,-5.06706 -16.76014,42.81153 -27.08502,-21.34312 3.24184,101.29973 76.52684,-77.616 2.53424,2.50007 -0.28048,3.54793 0.28048,-3.54793" /></g></svg>